<svg xmlns="http://www.w3.org/2000/svg" width="511.977" height="158.237" viewBox="0 0 729 225.313">
  <defs>
    <style>
      .cls-1 {
        fill: #fc6;
        fill-rule: evenodd;
      }
    </style>
  </defs>
  <path id="todo" class="cls-1" d="M290.4,603.167a30.179,30.179,0,0,1-17.4,5.1q-7.8,0-12.45-4.95t-4.65-13.65v-54h37.2v-42.6H255.9v-42.3h-57v42.3H175.2v42.6h23.7v54.6q0,30.9,17.1,46.5t48.9,15.6a97.523,97.523,0,0,0,22.05-2.4,57.406,57.406,0,0,0,17.55-6.9Zm112.8,49.2q26.4,0,47.4-10.8a80.476,80.476,0,0,0,32.7-30q11.7-19.2,11.7-43.5t-11.7-43.35a79.814,79.814,0,0,0-32.7-29.7q-21-10.645-47.4-10.65t-47.25,10.65a80.693,80.693,0,0,0-32.7,29.85q-11.855,19.2-11.85,43.2,0,24.3,11.85,43.5a81.48,81.48,0,0,0,32.85,30q21,10.8,47.1,10.8h0Zm0-45.3q-15,0-24.6-10.35t-9.6-28.65q0-18,9.6-28.2t24.6-10.2q15,0,24.6,10.2t9.6,28.2q0,18.3-9.6,28.65t-24.6,10.35h0Zm234-180v74.1q-15.9-16.8-45-16.8a81.782,81.782,0,0,0-40.5,10.2,74.046,74.046,0,0,0-28.95,29.25q-10.652,19.054-10.65,44.25t10.65,44.4a74.811,74.811,0,0,0,28.95,29.55,80.816,80.816,0,0,0,40.5,10.35q31.8,0,47.7-18.9v16.2h54.3v-222.6h-57Zm-33,180q-15,0-24.6-10.35t-9.6-28.65q0-18,9.6-28.2t24.6-10.2q15,0,24.45,10.2t9.45,28.2q0,18.3-9.6,28.65t-24.3,10.35h0Zm208.2,45.3q26.4,0,47.4-10.8a80.476,80.476,0,0,0,32.7-30q11.7-19.2,11.7-43.5t-11.7-43.35a79.814,79.814,0,0,0-32.7-29.7q-21-10.645-47.4-10.65t-47.25,10.65a80.693,80.693,0,0,0-32.7,29.85q-11.855,19.2-11.85,43.2,0,24.3,11.85,43.5a81.48,81.48,0,0,0,32.85,30q21,10.8,47.1,10.8h0Zm0-45.3q-15,0-24.6-10.35t-9.6-28.65q0-18,9.6-28.2t24.6-10.2q15,0,24.6,10.2t9.6,28.2q0,18.3-9.6,28.65t-24.6,10.35h0Z" transform="translate(-175.188 -427.062)"/>
</svg>
