<svg xmlns="http://www.w3.org/2000/svg" viewBox="0 0 1000 990"><mask id="mask"><path d="M1000,0H0V718.31H179.2c38.38,142.38,167.45,247.1,320.8,247.1s282.42-104.72,320.8-247.1H1000Z" fill="white"></path></mask><g mask="url(#mask)"><circle cx="500" cy="630.1601" r="332.441995" fill="#85c5e5"></circle><path d="M501.71,209.52c-166.14,0-300.83,134.68-300.83,300.83V816.78c0,166.14,134.69,300.83,300.83,300.83S802.54,982.92,802.54,816.78V510.35C802.54,344.2,667.85,209.52,501.71,209.52Z" fill="#FEDC58" stroke="#592d3d" stroke-miterlimit="10" stroke-width="12px"></path><path d="M610,758.72c90.76,0,72,114.24,72.87,241.28H610Z" fill="#CC734C"></path><path d="M632.74,831.87,610,870l11.38,130h31.76C653.91,819.73,632.74,831.87,632.74,831.87Z" fill="#B56241"></path><path d="M233.25,500c0-147.32,119.43-266.75,266.75-266.75S766.75,352.68,766.75,500A266.22,266.22,0,0,1,668.1,707.12q-8.21,6.68-16.94,12.69C591,758,515,758,446.39,751.89c-6.66-1-13.3-2.26-19.89-3.71-26.33-5.8-51.82-14.75-75.37-27.8Q342.4,715,334.2,708.76a199.59,199.59,0,0,1-15.8-13.38q-7.14-6.63-13.79-13.78A265.86,265.86,0,0,1,233.25,500Z" fill="#CC734C"></path><path d="M269.61,634.48c.7,1.2,1.39,2.4,2.11,3.58.43.72.88,1.42,1.33,2.14.66,1.07,1.32,2.14,2,3.19.48.76,1,1.5,1.46,2.24.66,1,1.32,2,2,3,.51.76,1,1.52,1.56,2.28.66,1,1.32,1.92,2,2.88.54.77,1.1,1.53,1.65,2.3s1.34,1.85,2,2.77,1.15,1.53,1.73,2.29,1.37,1.8,2.07,2.7,1.19,1.51,1.79,2.26,1.41,1.76,2.12,2.63,1.23,1.49,1.85,2.23,1.44,1.72,2.17,2.57,1.27,1.47,1.91,2.2l2.22,2.5c.65.73,1.31,1.44,2,2.16.86.94,1.73,1.87,2.6,2.79l1.21,1.28c1.29,1.34,2.59,2.68,3.91,4l.26.27c1.29,1.28,2.6,2.55,3.91,3.81l1.58,1.5c.95.89,1.9,1.78,2.86,2.66l1.16,1.06c1,.94,2.09,1.86,3.14,2.78q4.9,4.27,10,8.19,8.19,6.24,16.93,11.62c23.55,13,49,22,75.37,27.8,6.59,1.45,13.23,2.7,19.89,3.71,42.1,3.75,87,5.18,129.28-3.08C508.45,729,185.59,612.74,388.8,257.48h0c-2.72,1.25-5.4,2.54-8.06,3.88l-.59.29c-1.22.61-2.44,1.24-3.65,1.88l-1,.53c-3.76,2-7.48,4.07-11.13,6.23l-.9.53c-1.16.69-2.31,1.39-3.46,2.1l-.87.54q-5.36,3.35-10.55,6.93l-1.08.75c-1.09.76-2.16,1.52-3.23,2.29l-.66.47q-3.27,2.39-6.46,4.84l-.62.48c-1,.78-2,1.58-3,2.39l-1.17.94c-1,.81-2,1.62-3,2.45l0,0c-2.11,1.75-4.19,3.55-6.24,5.37l-1.14,1-2.69,2.45L318,305q-4.28,4-8.37,8.17l-1.38,1.41c-.79.82-1.58,1.64-2.36,2.47-.46.49-.92,1-1.37,1.48q-2.06,2.2-4.06,4.46c-.45.51-.91,1-1.36,1.54-.71.81-1.41,1.63-2.11,2.45l-1.51,1.79c-.68.81-1.36,1.62-2,2.44-.54.66-1.08,1.33-1.61,2-1.07,1.33-2.12,2.66-3.16,4-.54.7-1.08,1.4-1.61,2.11s-1.2,1.59-1.79,2.4-1.07,1.45-1.59,2.18-1.13,1.55-1.68,2.33q-1.42,2-2.8,4.05c-.5.73-1,1.48-1.49,2.22s-1.1,1.66-1.64,2.5l-1.49,2.31-1.68,2.71c-.43.69-.86,1.38-1.28,2.07-.89,1.46-1.75,2.93-2.61,4.4l-1.22,2.16c-.54.95-1.08,1.91-1.61,2.87-.4.73-.8,1.46-1.19,2.19-.64,1.19-1.27,2.39-1.9,3.59l-1.2,2.34c-.64,1.28-1.28,2.55-1.91,3.84-.33.69-.67,1.39-1,2.09-.52,1.09-1,2.19-1.53,3.29-.31.66-.61,1.32-.91,2q-1.11,2.47-2.17,5c-.22.52-.43,1.05-.65,1.57-.53,1.27-1.05,2.54-1.56,3.82-.27.67-.53,1.34-.79,2-.5,1.26-1,2.53-1.45,3.8-.21.55-.42,1.1-.62,1.65q-.94,2.63-1.85,5.26l-.56,1.7q-.66,2-1.29,4l-.6,1.91c-.47,1.54-.93,3.08-1.37,4.63-.1.33-.2.66-.29,1q-.78,2.76-1.5,5.54c-.16.59-.3,1.19-.45,1.78-.35,1.39-.69,2.78-1,4.18l-.42,1.75c-.43,1.9-.85,3.8-1.24,5.71l-.15.77q-.51,2.55-1,5.1c-.11.61-.21,1.21-.32,1.82-.26,1.49-.51,3-.74,4.5-.08.51-.17,1-.24,1.52-.3,1.95-.57,3.91-.83,5.88l-.15,1.3c-.2,1.59-.38,3.19-.55,4.79-.06.6-.13,1.2-.19,1.81-.16,1.68-.31,3.37-.45,5.06,0,.35-.06.69-.08,1q-.22,3-.39,6.05c0,.53,0,1.07-.07,1.6q-.1,2.36-.18,4.71c0,.59,0,1.18,0,1.77,0,2.05-.08,4.11-.08,6.17,0,0,0,.07,0,.1,0,2.22,0,4.42.08,6.62,0,.76.06,1.52.08,2.28.05,1.47.1,2.94.17,4.41,0,.89.11,1.77.16,2.66.08,1.33.15,2.66.25,4,.07,1,.16,1.89.24,2.83.11,1.26.21,2.52.34,3.77.09,1,.21,1.94.31,2.91.14,1.21.27,2.43.42,3.64.12,1,.26,2,.39,2.95.16,1.18.32,2.37.5,3.55.15,1,.31,2,.47,3,.18,1.16.37,2.33.57,3.49.18,1,.36,2,.55,3,.21,1.15.43,2.3.65,3.44s.41,2,.62,3c.24,1.14.48,2.27.74,3.4s.44,2,.68,2.93c.26,1.13.54,2.25.82,3.36s.49,1.95.74,2.91c.3,1.12.6,2.23.91,3.34.26,1,.53,1.92.81,2.87.32,1.11.65,2.21,1,3.31s.58,1.89.88,2.84.7,2.19,1.06,3.28.62,1.87.94,2.8c.38,1.09.76,2.18,1.15,3.27.33.91.65,1.83,1,2.74l1.24,3.27c.35.89.69,1.79,1,2.68.44,1.09.89,2.19,1.34,3.28.36.86.71,1.73,1.08,2.59.47,1.12,1,2.22,1.45,3.33.37.82.73,1.65,1.1,2.47.52,1.16,1.07,2.3,1.6,3.44l1.08,2.3c.61,1.26,1.24,2.5,1.87,3.75.32.63.62,1.27.95,1.9q2.88,5.61,6,11.07C268.88,633.26,269.25,633.87,269.61,634.48Z" fill="#B56241"></path><path d="M233.25,500c0-147.32,119.43-266.75,266.75-266.75S766.75,352.68,766.75,500A266.22,266.22,0,0,1,668.1,707.12q-8.21,6.68-16.94,12.69C591,758,515,758,446.39,751.89c-6.66-1-13.3-2.26-19.89-3.71-26.33-5.8-51.82-14.75-75.37-27.8Q342.4,715,334.2,708.76a199.59,199.59,0,0,1-15.8-13.38q-7.14-6.63-13.79-13.78A265.86,265.86,0,0,1,233.25,500Z" fill="none" stroke="#592d3d" stroke-miterlimit="10" stroke-width="12px"></path><path d="M386.12,758.72c-90.77,0-72,114.24-72.87,241.28h72.87Z" fill="#CC734C"></path><path d="M367.23,831.87,390,870l-11.39,130H346.88C346.07,819.73,367.23,831.87,367.23,831.87Z" fill="#B56241"></path><path d="M619.47,1070H380.53a13.28,13.28,0,0,1-13.27-13.28V772a13.28,13.28,0,0,1,13.27-13.28H613.76c13.09,0,19,7.66,19,19.88v278.08A13.28,13.28,0,0,1,619.47,1070Z" fill="#CC734C"></path><path d="M629.05,766.62a19.33,19.33,0,0,1-2.51-4,17.25,17.25,0,0,0-8.28-3.51,28.88,28.88,0,0,0-4.5-.34H380.53A13.28,13.28,0,0,0,367.26,772c29,10.42,83.29,16.24,132.74,16.24C563.06,788.24,604.38,778.89,629.05,766.62Z" fill="#B56241"></path><path d="M610,758.72c90.76,0,72,114.24,72.87,241.28H632.74" fill="none" stroke="#592d3d" stroke-linecap="square" stroke-miterlimit="10" stroke-width="12px"></path><path d="M386.12,758.72c-90.77,0-72,114.24-72.87,241.28h50.07" fill="none" stroke="#592d3d" stroke-linecap="square" stroke-miterlimit="10" stroke-width="12px"></path><path d="M380.53,758.82l233.23-.1" fill="none" stroke="#592d3d" stroke-miterlimit="10" stroke-width="12px"></path><path d="M380.53,1070H497.15C388,1070,396.24,838.82,367.26,838.82v217.86A13.28,13.28,0,0,0,380.53,1070Z" fill="#B56241"></path><path d="M361.26,860.85c-.19-3.67-.11-7.34.05-11s.47-7.35.86-11c.2-1.84.4-3.67.65-5.51s.49-3.67.85-5.51a44.18,44.18,0,0,1,3.59-11,44.18,44.18,0,0,1,3.59,11c.36,1.84.62,3.67.85,5.51s.45,3.67.65,5.51c.38,3.67.68,7.34.85,11s.25,7.34.06,11Z" fill="#592d3d"></path><path d="M632.74,870v8c.26,34,.26,69,0,102.75,0,2.87,0,5.72,0,8.53v67.41A13.28,13.28,0,0,1,619.47,1070H380.53a13.28,13.28,0,0,1-13.27-13.28V998.52c0-2.51,0-5.07,0-7.65-.25-34.87-.25-69.87,0-105.3V860.85" fill="none" stroke="#592d3d" stroke-miterlimit="10" stroke-width="12px"></path><path d="M626.74,870c-.19-4.17-.1-8.35.06-12.53s.47-8.35.85-12.53c.2-2.09.41-4.18.65-6.27s.49-4.17.85-6.26a55.09,55.09,0,0,1,3.59-12.53,55.09,55.09,0,0,1,3.59,12.53c.36,2.09.62,4.18.85,6.26s.45,4.18.65,6.27c.38,4.18.69,8.35.85,12.53s.25,8.36.06,12.53Z" fill="#592d3d"></path><path d="M570.68,842.45C570.9,833,582.9,829,588.9,835a10.61,10.61,0,1,1-15.16,14.85A10.4,10.4,0,0,1,570.68,842.45Z" fill="#592d3d"></path><path d="M408.11,842.15C407.9,834,416.9,830,422.9,833c8,3,8,14,0,19-4,2-8,0-11.75-2.48A10.39,10.39,0,0,1,408.11,842.15Z" fill="#592d3d"></path><path d="M500,831.77a27.13,27.13,0,0,1,1.5,5.84,42.47,42.47,0,0,1,.49,5.84l.3,11.69c.09,3.89.21,7.79.25,11.69l.17,11.67c.23,15.57.22,31.16.28,46.74s.18,31.16,0,46.74c-.09,7.79-.3,15.58-.53,23.37-.1,3.89-.29,7.79-.67,11.68a92.5,92.5,0,0,1-1.77,11.69,92.5,92.5,0,0,1-1.77-11.69c-.38-3.89-.57-7.79-.67-11.68-.23-7.79-.44-15.58-.53-23.37-.2-15.58,0-31.16,0-46.74s0-31.15.18-46.73l.17-11.7.33-11.68.33-11.68a44.11,44.11,0,0,1,.5-5.84A27.13,27.13,0,0,1,500,831.77Z" fill="#B56241"></path><path d="M425.22,883a18.51,18.51,0,0,1,4.67-1.5,29.75,29.75,0,0,1,4.68-.5l9.35-.33,18.7-.41c12.46-.19,24.91-.24,37.38-.27s24.93-.16,37.39,0c6.23.09,12.46.3,18.7.53,3.11.11,6.23.3,9.34.67a61.34,61.34,0,0,1,9.35,1.78,59.17,59.17,0,0,1-9.35,1.77c-3.11.38-6.23.57-9.34.67-6.24.23-12.47.43-18.7.52-12.46.19-24.92,0-37.39,0s-24.93,0-37.4-.15c-6.23-.06-12.46-.26-18.68-.5l-9.35-.34a29.5,29.5,0,0,1-4.67-.5A18.45,18.45,0,0,1,425.22,883Z" fill="#B56241"></path><path d="M442.41,914.38a12.51,12.51,0,0,1,3.74-1.11,18.35,18.35,0,0,1,3.62-.15c2.39.1,4.78.16,7.17.21,4.78.11,9.56.15,14.34.17,9.63,0,19.09.08,28.76-.21s19.26-.43,28.88-.39c4.81,0,9.62.13,14.42.24a70.37,70.37,0,0,1,7.23.47,38.17,38.17,0,0,1,7.27,1.53,36.56,36.56,0,0,1-7.16,2,61.08,61.08,0,0,1-7.21.86c-4.82.35-9.64.65-14.45.82-9.64.36-19.27.32-28.88.45-4.81,0-9.61.22-14.48.1s-9.69-.13-14.52-.31-9.68-.58-14.5-1.08c-2.42-.27-4.82-.57-7.23-.9a16.82,16.82,0,0,1-3.57-.84A11.51,11.51,0,0,1,442.41,914.38Z" fill="#B56241"></path><path d="M438.93,949.87a13.07,13.07,0,0,1,3.82-1.5,19.13,19.13,0,0,1,3.82-.49l7.63-.32c5.09-.18,10.19-.33,15.28-.41C479.66,947,489.84,947,500,947s20.36-.17,30.54,0c5.09.09,10.18.3,15.27.53a72.73,72.73,0,0,1,7.63.66A41.2,41.2,0,0,1,561.1,950a41.25,41.25,0,0,1-7.63,1.77,70.34,70.34,0,0,1-7.64.67c-5.09.23-10.18.44-15.27.53-10.18.2-20.37.06-30.55,0s-20.36-.06-30.54-.25c-5.09-.1-10.19-.28-15.28-.49l-7.63-.37a19.33,19.33,0,0,1-3.82-.5A12.85,12.85,0,0,1,438.93,949.87Z" fill="#B56241"></path><path d="M568.44,849.8c-21.18,6.89-42,17.48-62.85,19.67-26.75,2.82-54.1-13.37-82.3-21.08-2.15-2.58-18.35-14.44-33.47-13.94-11.88.4-15.09,4.3-18.4,8.19l-4.16,213.48a13.27,13.27,0,0,0,13.27,13.27H619.47a13.27,13.27,0,0,0,13.27-13.27l-2.38-215.36c-4.43,0-7.1-9.4-20.41-5.09C593.66,841,569.71,848.28,568.44,849.8Z" fill="#89D86F"></path><polygon points="632.74 831.31 609.95 869.4 621.34 999.43 632.94 999.43 632.94 893.78 632.74 831.31" fill="#7DC462"></polygon><path d="M380.53,1069.39H497.15c-109.2,0-100.91-231.14-129.89-231.14v217.87A13.27,13.27,0,0,0,380.53,1069.39Z" fill="#7DC462"></path><path d="M361.26,860.4a63.71,63.71,0,0,1-.1-8.29q.19-4.15.71-8.31c.18-1.39.35-2.77.57-4.16s.44-2.77.78-4.16a27.84,27.84,0,0,1,3.44-8.35,27.54,27.54,0,0,1,3.73,8.22c.39,1.38.68,2.76.93,4.13s.5,2.76.72,4.14c.44,2.75.79,5.51,1,8.27a62,62,0,0,1,.21,8.29Z" fill="#592d3d"></path><path d="M632.74,869.4v8c.26,34,.26,69,0,102.76,0,2.87,0,5.72,0,8.53v67.41a13.27,13.27,0,0,1-13.27,13.27H380.53a13.27,13.27,0,0,1-13.27-13.27V998q0-3.76,0-7.65c-.25-34.86-.25-69.86,0-105.3V860.29" fill="none" stroke="#592d3d" stroke-miterlimit="10" stroke-width="12px"></path><path d="M626.76,869.38a65.79,65.79,0,0,1,.65-8.53q.57-4.25,1.46-8.47c.3-1.41.6-2.82.94-4.22s.69-2.81,1.15-4.21a29.21,29.21,0,0,1,4.18-8.28,28.9,28.9,0,0,1,3,8.78c.26,1.45.42,2.89.55,4.33s.25,2.88.35,4.31c.18,2.87.28,5.74.25,8.59a67.65,67.65,0,0,1-.54,8.54Z" fill="#592d3d"></path><path d="M557.91,889.36c4.41-.78,8.76-1.39,13.1-2l13-1.93c4.31-.65,8.61-1.36,12.91-2.1s8.61-1.58,13.07-2.2a62.58,62.58,0,0,1-12.33,5.26,87,87,0,0,1-13,3,94.61,94.61,0,0,1-13.33,1.11A65.72,65.72,0,0,1,557.91,889.36Z" fill="#592d3d"></path><path d="M329.09,794.17c56.12,35.58,168.48,75.53,168.48,75.53l-.16,14S397,879.36,316.32,844.9C316.32,814.38,329.09,794.17,329.09,794.17Z" fill="#89D86F" stroke="#592d3d" stroke-miterlimit="10" stroke-width="12px"></path><path d="M648.66,870.5s17.7-1.85,30.9-9c-.11-4.25-.6-8.11-.6-8.11l-30.85,10.68Z" fill="#B56241"></path><path d="M671.55,794.43C619,831.8,503,869.7,503,869.7l.17,14s100.41-4.3,181.08-38.76C684.29,822.67,671.55,794.43,671.55,794.43Z" fill="#89D86F" stroke="#592d3d" stroke-miterlimit="10" stroke-width="12px"></path><path d="M320.63,822.65c.28.24.83.61,1.27.92s1,.64,1.45.95c1,.6,2,1.21,3.08,1.77,2.08,1.16,4.23,2.25,6.43,3.28s4.42,2,6.65,3c1.12.5,2.23,1,3.34,1.58s2.22,1.1,3.31,1.76a40.85,40.85,0,0,1-7.42-1.08q-3.63-.9-7.17-2.15a65,65,0,0,1-7-2.89c-1.13-.56-2.26-1.16-3.36-1.84-.55-.34-1.09-.69-1.64-1.06a15.93,15.93,0,0,1-1.67-1.31Z" fill="#592d3d"></path><path d="M703.51,506.11V519a49.59,49.59,0,0,1-1.94,25.32,45.67,45.67,0,0,1-3.51,7.65c-3.35,8.71-12.35,15.71-21.35,18.71-14,4-31,2-42-9-14-15-12-37-12.45-55.62" fill="none" stroke="#592d3d" stroke-linecap="round" stroke-miterlimit="10" stroke-width="12px"></path><path d="M376.69,505.7c2.34,26.61-1.66,63.61-36.13,67.17a45.89,45.89,0,0,1-8.12,0A43.6,43.6,0,0,1,310,564.31c-18-15-14-39-13.95-58.62" fill="none" stroke="#592d3d" stroke-linecap="round" stroke-miterlimit="10" stroke-width="12px"></path><path d="M538.71,665.74c-15.55,0-25.12-12.76-36.48-12.76S476.31,665.74,461,665.74s-23.73-11.11-23.73-26.51c0-16.65,16.75-46.06,62.61-46.06s65.39,27.74,65.39,45.46C565.23,655,554.27,665.74,538.71,665.74Z" fill="#592d3d" stroke="#592d3d" stroke-miterlimit="10" stroke-width="12px"></path><path d="M511.14,655.25C506.58,643,491,635,473.29,636.57c-14.79,1.34-26.93,9.09-31.84,19.1,3.92,6.26,10.51,10.07,19.51,10.07,15.35,0,29.9-12.76,41.27-12.76A21.5,21.5,0,0,1,511.14,655.25Z" fill="#f28195"></path><path d="M455.06,628.66l.87-.35.73-.25c.47-.16.94-.28,1.41-.4a21.33,21.33,0,0,1,2.85-.53,24.24,24.24,0,0,1,5.84-.07,21.24,21.24,0,0,1,11.15,4.48,20.07,20.07,0,0,1,6.55,9.27,17.31,17.31,0,0,1,.2,10.44c-2.5-2.58-4.46-4.94-6.43-6.88a27.89,27.89,0,0,0-2.88-2.58,13.78,13.78,0,0,0-3-1.72,15.18,15.18,0,0,0-6.35-1.15,29.08,29.08,0,0,0-3.43.3c-.57.1-1.16.19-1.72.31l-.84.19-.39.08c-.09,0-.29.08-.22,0Z" fill="#592d3d"></path><path d="M559.29,397.34c-12.87,24-60,37.44-63.83,31.42-4.3-6.73,37.84-55.32,13.9-106.14" fill="#B56241"></path><path d="M746.9,365.72c-43.51-90.29-140.27-142-244.74-142-131.19,0-253.5,95-275.32,223.74,0,0,202.41,15.32,275.25-67.4C511.7,384.77,658.18,457.67,746.9,365.72Z" fill="#FEDC58"></path><path d="M502.16,233.15a361.93,361.93,0,0,0-51.86,7.33l-12.68,3.05c-4.2,1.13-8.36,2.37-12.54,3.55l-12.39,4c-4.09,1.46-8.13,3-12.2,4.54a339.08,339.08,0,0,0-46.87,22.71,388.52,388.52,0,0,0-43.25,29.58,233,233,0,0,1,40.79-33.56,258.22,258.22,0,0,1,47.14-24.31c4.17-1.5,8.32-3.06,12.5-4.51,4.24-1.29,8.44-2.7,12.7-3.9s8.58-2.19,12.89-3.21,8.68-1.76,13-2.53A224.82,224.82,0,0,1,502.16,233.15Z" fill="#592d3d"></path><path d="M537.23,398.81C526.9,418.12,489.07,428.88,486,424c-3.45-5.4,30.38-44.42,11.16-85.22" fill="#FEDC58"></path><path d="M240.15,454.33s185.57,8.28,259.86-72c-5,19.52-15.75,34.09-13.79,37.16,2.89,4.53,38-5.42,48.16-23.35,45.56,19,131.48,41.33,206.15-16.09" fill="none" stroke="#592d3d" stroke-miterlimit="10" stroke-width="12px"></path><path d="M407.29,474.84H286.65c-5.56,0-11.12-.08-16.68,0h-.24c-5.23,0-10.24,4.6-10,10a10.17,10.17,0,0,0,10,10H390.37c5.55,0,11.12.08,16.68,0h.24c5.23,0,10.24-4.6,10-10a10.18,10.18,0,0,0-10-10Z" fill="#592d3d"></path><path d="M726.32,474.84H605.68c-5.56,0-11.12-.08-16.68,0h-.24c-5.23,0-10.24,4.6-10,10a10.17,10.17,0,0,0,10,10H709.4c5.56,0,11.12.08,16.68,0h.24c5.23,0,10.24-4.6,10-10a10.18,10.18,0,0,0-10-10Z" fill="#592d3d"></path><circle cx="338.9" cy="548.55" r="93.31" fill="white" opacity="0.2"></circle><path d="M744.47,606.82a103.27,103.27,0,0,1-188.33-51.49c-37-14.6-74.43-14.47-114.19.39a103.43,103.43,0,0,1-103,96.13c-32.48,0-76-36.5-71-28.39,14,20.69,47,36.45,72.54,36.45,54.55,0,97.87-39.29,101.56-92.92,39.76-14.85,77.23-15,114.19-.39,3.5,53.82,48.39,93.53,103.07,93.53C704,660.13,729.4,626,744.47,606.82Z" opacity="0.15"></path><path d="M320,648.75,443.07,525.67a93.05,93.05,0,0,0-10-17.27L302.72,638.76A93.1,93.1,0,0,0,320,648.75Z" fill="white" opacity="0.4"></path><circle cx="338.9" cy="548.55" r="93.31" fill="none" stroke="#592d3d" stroke-miterlimit="10" stroke-width="20px"></circle><circle cx="659.21" cy="548.55" r="93.31" fill="none" stroke="#592d3d" stroke-miterlimit="10" stroke-width="20px"></circle><path d="M432.77,548.55c45.2-18.31,89.61-19,133.14,0" fill="none" stroke="#592d3d" stroke-miterlimit="10" stroke-width="20px"></path><path d="M314.7,492.5c2.06,6.5-5.94,11.5-11.94,12.5-6,0-10-4-12-9-1-5,0-10,4-13,5-2,12-4,16.45,1.13A11.66,11.66,0,0,1,314.7,492.5Z" fill="white"></path><path d="M325.37,488.67c-.61,4.33-6.61,4.33-7.61.33,0-3,1-4,3.85-4.1A3.76,3.76,0,0,1,325.37,488.67Z" fill="white"></path><circle cx="659.21" cy="548.55" r="93.31" fill="white" opacity="0.2"></circle><path d="M645.19,640.81,751.47,534.52a94.74,94.74,0,0,0-2.41-11.22L634,638.4A94.31,94.31,0,0,0,645.19,640.81Z" fill="white" opacity="0.4"></path><circle cx="659.21" cy="548.55" r="93.31" fill="none" stroke="#592d3d" stroke-miterlimit="10" stroke-width="20px"></circle><path d="M635,492.5c2.06,6.5-5.94,11.5-11.94,12.5-6,0-10-4-12-9-1-5,0-10,4-13,5-2,12-4,16.45,1.13A11.7,11.7,0,0,1,635,492.5Z" fill="white"></path><path d="M645.69,488.67c-.61,4.33-6.61,4.33-7.61.33,0-3,1-4,3.84-4.1A3.77,3.77,0,0,1,645.69,488.67Z" fill="white"></path></g></svg>